<svg viewBox="0 0 1200 630" width="1200" height="630" xmlns="http://www.w3.org/2000/svg" role="img" aria-labelledby="og-title og-desc">
  <title id="og-title">joflux share image</title>
  <desc id="og-desc">A branded dark share card for joflux, showing a five-stage GitHub organization to Forgejo migration workflow and inspectable JSON state.</desc>

  <defs>
    <style>
      .sans{font-family:'Inter','Segoe UI',system-ui,-apple-system,'Helvetica Neue',Arial,sans-serif;}
      .mono{font-family:'SFMono-Regular','SF Mono','JetBrains Mono','Fira Code','DejaVu Sans Mono',Menlo,Consolas,monospace;}
    </style>
    <linearGradient id="markGrad" x1="70" y1="154" x2="134" y2="226" gradientUnits="userSpaceOnUse">
      <stop stop-color="#18A8FF" />
      <stop offset="0.68" stop-color="#4BD8FF" />
      <stop offset="1" stop-color="#79E7E0" />
    </linearGradient>
    <linearGradient id="flow" x1="580" y1="0" x2="1120" y2="0" gradientUnits="userSpaceOnUse">
      <stop stop-color="#22D3EE" />
      <stop offset="0.34" stop-color="#34D399" />
      <stop offset="0.68" stop-color="#818CF8" />
      <stop offset="1" stop-color="#FBBF24" />
    </linearGradient>
    <radialGradient id="glowBrand" cx="0.5" cy="0.5" r="0.5">
      <stop offset="0" stop-color="#4DA3FF" stop-opacity="0.55" />
      <stop offset="1" stop-color="#4DA3FF" stop-opacity="0" />
    </radialGradient>
    <radialGradient id="glowCyan" cx="0.5" cy="0.5" r="0.5">
      <stop offset="0" stop-color="#22D3EE" stop-opacity="0.38" />
      <stop offset="1" stop-color="#22D3EE" stop-opacity="0" />
    </radialGradient>
    <marker id="arrow" viewBox="0 0 10 10" refX="7.5" refY="5" markerWidth="7" markerHeight="7" orient="auto-start-reverse">
      <path d="M1 1L8 5L1 9" fill="none" stroke="#4DA3FF" stroke-width="1.6" stroke-linecap="round" stroke-linejoin="round" />
    </marker>
    <clipPath id="card-round"><rect x="2" y="2" width="1196" height="626" rx="28" /></clipPath>
  </defs>

  <g clip-path="url(#card-round)">
    <rect width="1200" height="630" fill="#0A0E18" />
    <ellipse cx="150" cy="68" rx="420" ry="320" fill="url(#glowBrand)" opacity="0.5" />
    <ellipse cx="1080" cy="590" rx="520" ry="360" fill="url(#glowCyan)" opacity="0.5" />
    <line x1="486" y1="72" x2="486" y2="558" stroke="#1E2A40" stroke-width="2" />

    <g>
    <rect x="58" y="66" width="132" height="32" rx="16" fill="#063042" stroke="#1F6F8E" stroke-width="1.5" />
    <text class="sans" x="75" y="88" font-size="16" fill="#F4F8FF" font-weight="800">NETSPEEDY</text>
    </g>

    <g>
    <rect x="58" y="128" width="78" height="78" rx="18" fill="#0F1626" stroke="#2A3A56" stroke-width="1.5" />
    <rect x="60" y="130" width="74" height="74" rx="17" fill="none" stroke="#4BD8FF" stroke-opacity="0.18" />
    <path d="M76 146h34c8 0 13 6 13 13s-5 13-13 13H92c-7 0-11 5-11 11s4 11 11 11h6" fill="none" stroke="url(#markGrad)" stroke-width="7.3" stroke-linecap="round" />
    <path d="M76 159h20c8 0 13 6 13 13s-5 13-13 13h-4" fill="none" stroke="#F4F8FF" stroke-width="7.3" stroke-linecap="round" opacity="0.92" />
    </g>

    <text class="sans" x="154" y="190" font-size="78" font-weight="800"><tspan fill="#4BD8FF">jo</tspan><tspan fill="#E9EFF8">flux</tspan></text>
    <text class="sans" x="58" y="284" font-size="31" font-weight="760" fill="#E9EFF8">GitHub <tspan fill="#4DA3FF">&#8594;</tspan> Forgejo</text>
    <text class="sans" x="58" y="322" font-size="31" font-weight="760" fill="#E9EFF8">migration workflow</text>
    <text class="sans" x="58" y="364" font-size="21" fill="#8C99B0">Inspectable JSON state for every stage.</text>
    <line x1="58" y1="398" x2="438" y2="398" stroke="#1E2A40" stroke-width="1.5" />

    <g class="mono" font-size="18" font-weight="700">
    <text x="58" y="444" fill="#22D3EE">export</text>
    <text x="152" y="444" fill="#3A4760">/</text>
    <text x="178" y="444" fill="#34D399">migrate</text>
    <text x="292" y="444" fill="#3A4760">/</text>
    <text x="318" y="444" fill="#818CF8">monitor</text>
    <text x="58" y="482" fill="#FBBF24">verify</text>
    <text x="134" y="482" fill="#3A4760">/</text>
    <text x="160" y="482" fill="#94A3B8">archive</text>
    </g>

    <g>
    <rect x="58" y="512" width="380" height="70" rx="14" fill="#0C1220" stroke="#22304A" stroke-width="1.5" />
    <circle cx="78" cy="532" r="4.5" fill="#FF5F57" />
    <circle cx="96" cy="532" r="4.5" fill="#FEBC2E" />
    <circle cx="114" cy="532" r="4.5" fill="#28C840" />
    <text class="mono" x="78" y="562" font-size="15" fill="#56627C">$</text>
    <text class="mono" x="96" y="562" font-size="15" fill="#4DA3FF" font-weight="700">joflux</text>
    <text class="mono" x="170" y="562" font-size="15" fill="#8C99B0">--config</text>
    <text class="mono" x="246" y="562" font-size="15" fill="#8C99B0">joflux.toml</text>
    <text class="mono" x="366" y="562" font-size="15" fill="#34D399" font-weight="700">migrate</text>
    </g>

    <g>
    <rect x="510" y="70" width="652" height="488" rx="22" fill="#0E1422" stroke="#1E2A40" stroke-width="1.5" />
    <circle cx="540" cy="106" r="4" fill="#34D399" />
    <text class="mono" x="556" y="112" font-size="16" fill="#8C99B0">joflux - migration run</text>
    <text class="mono" x="1132" y="112" text-anchor="end" font-size="14" fill="#56627C">5 stages - resumable</text>

    <rect x="544" y="220" width="110" height="66" rx="12" fill="#121A2B" stroke="#274064" stroke-width="1.5" />
    <text class="mono" x="599" y="249" text-anchor="middle" font-size="15" font-weight="700" fill="#E9EFF8">GitHub org</text>
    <text class="mono" x="599" y="270" text-anchor="middle" font-size="12" fill="#56627C">repo list</text>

    <line x1="654" y1="253" x2="684" y2="253" stroke="#4DA3FF" stroke-width="2.5" stroke-dasharray="5 9" />
    <line x1="690" y1="253" x2="990" y2="253" stroke="#243450" stroke-width="3" stroke-linecap="round" />
    <line x1="690" y1="253" x2="990" y2="253" stroke="#4DA3FF" stroke-width="3" stroke-linecap="round" stroke-dasharray="8 12" />

    <g class="mono" font-weight="700">
      <text x="690" y="202" text-anchor="middle" font-size="12" fill="#56627C">inventory</text>
      <text x="690" y="222" text-anchor="middle" font-size="16" fill="#22D3EE">export</text>
      <circle cx="690" cy="253" r="16" fill="#0E1422" stroke="#22D3EE" stroke-width="2.5" />
      <text x="690" y="259" text-anchor="middle" font-size="15" fill="#22D3EE">1</text>

      <text x="765" y="202" text-anchor="middle" font-size="12" fill="#56627C">imports</text>
      <text x="765" y="222" text-anchor="middle" font-size="16" fill="#34D399">migrate</text>
      <circle cx="765" cy="253" r="16" fill="#0E1422" stroke="#34D399" stroke-width="2.5" />
      <text x="765" y="259" text-anchor="middle" font-size="15" fill="#34D399">2</text>

      <text x="840" y="202" text-anchor="middle" font-size="12" fill="#56627C">progress</text>
      <text x="840" y="222" text-anchor="middle" font-size="16" fill="#818CF8">monitor</text>
      <circle cx="840" cy="253" r="16" fill="#0E1422" stroke="#818CF8" stroke-width="2.5" />
      <text x="840" y="259" text-anchor="middle" font-size="15" fill="#818CF8">3</text>

      <text x="915" y="202" text-anchor="middle" font-size="12" fill="#56627C">metadata</text>
      <text x="915" y="222" text-anchor="middle" font-size="16" fill="#FBBF24">verify</text>
      <circle cx="915" cy="253" r="16" fill="#0E1422" stroke="#FBBF24" stroke-width="2.5" />
      <text x="915" y="259" text-anchor="middle" font-size="15" fill="#FBBF24">4</text>

      <text x="990" y="202" text-anchor="middle" font-size="12" fill="#56627C">source</text>
      <text x="990" y="222" text-anchor="middle" font-size="16" fill="#94A3B8">archive</text>
      <circle cx="990" cy="253" r="16" fill="#0E1422" stroke="#94A3B8" stroke-width="2.5" />
      <text x="990" y="259" text-anchor="middle" font-size="15" fill="#94A3B8">5</text>
    </g>

    <line x1="1006" y1="253" x2="1036" y2="253" stroke="#4DA3FF" stroke-width="2.5" marker-end="url(#arrow)" />
    <rect x="1040" y="222" width="96" height="36" rx="10" fill="#101A2E" stroke="#3D7DCF" stroke-width="1.5" />
    <circle cx="1055" cy="240" r="4" fill="#4DA3FF" />
    <text class="mono" x="1070" y="245" font-size="14" font-weight="700" fill="#E9EFF8">Forgejo</text>
    <rect x="1040" y="270" width="96" height="36" rx="10" fill="#121A2B" stroke="#2B3A56" stroke-width="1.4" />
    <circle cx="1055" cy="288" r="4" fill="#56627C" />
    <text class="mono" x="1070" y="293" font-size="14" font-weight="600" fill="#8C99B0">Codeberg</text>

    <g stroke="#2B3A56" stroke-width="1.8" stroke-linecap="round">
      <line x1="690" y1="271" x2="690" y2="342" />
      <line x1="765" y1="271" x2="765" y2="342" />
      <line x1="840" y1="271" x2="840" y2="342" />
      <line x1="915" y1="271" x2="915" y2="342" />
      <line x1="990" y1="271" x2="990" y2="342" />
      <line x1="690" y1="342" x2="990" y2="342" />
      <line x1="840" y1="342" x2="840" y2="364" />
    </g>
    <rect x="770" y="364" width="142" height="42" rx="10" fill="#101725" stroke="#2F4163" stroke-width="1.5" />
    <path d="M790 376h11l5 5v10a2 2 0 0 1-2 2h-14a2 2 0 0 1-2-2v-13a2 2 0 0 1 2-2z" fill="none" stroke="#79E7E0" stroke-width="1.5" stroke-linejoin="round" />
    <text class="mono" x="816" y="391" font-size="15" font-weight="700" fill="#E9EFF8">state.json</text>
    <text class="mono" x="840" y="440" text-anchor="middle" font-size="13" fill="#56627C">inspectable audit written after every stage</text>

    <line x1="544" y1="500" x2="1136" y2="500" stroke="#1A2438" stroke-width="1.4" />
    <text class="mono" x="544" y="536" font-size="13" fill="#3F4C66">idempotent - resumable - dry-run safe</text>
    <text class="mono" x="1136" y="536" text-anchor="end" font-size="13" fill="#3F4C66">github.com/netspeedy/joflux</text>
    </g>

  </g>

  <rect x="2" y="2" width="1196" height="626" rx="28" fill="none" stroke="#1E2A40" stroke-width="2" />
</svg>
